<?xml version="1.0" encoding="UTF-8" standalone="no"?>
<svg
   xmlns:dc="http://purl.org/dc/elements/1.1/"
   xmlns:cc="http://creativecommons.org/ns#"
   xmlns:rdf="http://www.w3.org/1999/02/22-rdf-syntax-ns#"
   xmlns:svg="http://www.w3.org/2000/svg"
   xmlns="http://www.w3.org/2000/svg"
   xmlns:sodipodi="http://sodipodi.sourceforge.net/DTD/sodipodi-0.dtd"
   xmlns:inkscape="http://www.inkscape.org/namespaces/inkscape"
   inkscape:version="1.0 (4035a4fb49, 2020-05-01)"
   sodipodi:docname="logo.svg"
   id="svg8"
   version="1.1"
   viewBox="0 0 120 30"
   height="30mm"
   width="120mm">
  <defs
     id="defs2">
    <inkscape:path-effect
       lpeversion="1"
       is_visible="true"
       id="path-effect1011"
       effect="spiro" />
    <inkscape:path-effect
       lpeversion="1"
       is_visible="true"
       id="path-effect1007"
       effect="spiro" />
    <inkscape:path-effect
       lpeversion="1"
       is_visible="true"
       id="path-effect988"
       effect="spiro" />
  </defs>
  <sodipodi:namedview
     height="108mm"
     inkscape:window-maximized="1"
     inkscape:window-y="-9"
     inkscape:window-x="-9"
     inkscape:window-height="1001"
     inkscape:window-width="1920"
     showgrid="false"
     inkscape:document-rotation="0"
     inkscape:current-layer="layer1"
     inkscape:document-units="mm"
     inkscape:cy="-8.4304028"
     inkscape:cx="350.29332"
     inkscape:zoom="1.4"
     inkscape:pageshadow="2"
     inkscape:pageopacity="0.0"
     borderopacity="1.0"
     bordercolor="#666666"
     pagecolor="#ffffff"
     id="base" />
  <metadata
     id="metadata5">
    <rdf:RDF>
      <cc:Work
         rdf:about="">
        <dc:format>image/svg+xml</dc:format>
        <dc:type
           rdf:resource="http://purl.org/dc/dcmitype/StillImage" />
        <dc:title></dc:title>
      </cc:Work>
    </rdf:RDF>
  </metadata>
  <g
     id="layer1"
     inkscape:groupmode="layer"
     inkscape:label="Слой 1">
    <g
       transform="matrix(0.61135368,0,0,0.57705223,0.10316265,-0.10478776)"
       id="g909">
      <g
         id="g899">
        <path
           style="fill:#80b435;fill-opacity:1;stroke:#80b435;stroke-width:0.96862;stroke-linecap:butt;stroke-linejoin:miter;stroke-miterlimit:4;stroke-dasharray:none;stroke-opacity:1"
           d="m 105.72819,34.50417 c 0,0 0.11741,-1.57479 0.30595,-2.278449 0.31856,-1.18835 0.98309,-2.293011 1.285,-3.48468 0.24944,-0.98455 0.27259,-2.00293 0.42833,-3.00217 0.15074,-0.96655 0.48952,-2.89496 0.48952,-2.89496"
           id="path902"
           sodipodi:nodetypes="csssc" />
        <path
           sodipodi:nodetypes="ssssssscsssssssssss"
           id="path896-8"
           d="m 108.09475,34.456651 c 0.70478,0.333289 0.8625,1.241349 1.54549,1.607529 0.52003,0.27881 1.30158,0.0359 1.78328,0.36298 0.51054,0.34661 0.40276,1.1342 0.89162,1.50382 0.36461,0.27567 1.12212,0.0522 1.36716,0.41483 0.29611,0.438181 -0.51082,1.03051 -0.2972,1.50382 0.22794,0.50502 1.60393,0.83608 1.10778,0.87524 -4.81339,0.37975 -16.622182,0.21368 -16.622182,0.21368 0,0 -0.46317,-0.45835 -0.41609,-0.72598 0.12985,-0.73851 1.06475,-1.20361 1.78326,-1.60751 0.2476,-0.13928 0.65655,-0.0529 0.832182,-0.25928 0.23659,-0.27787 -0.130952,-0.73339 0.0593,-1.03711 0.24524,-0.39141 0.79044,-0.57916 1.24828,-0.77782 0.29739,-0.129019 0.72573,-0.0464 0.95109,-0.25929 0.3033,-0.286459 0.037,-0.82371 0.2972,-1.1408 0.1762,-0.214539 0.53498,-0.414839 0.77274,-0.414839 0.23777,0 1.80621,-0.43731 2.73433,-0.46671 0.65825,-0.0209 1.38259,-0.0664 1.96162,0.20744 z"
           style="fill:#946b3d;fill-opacity:1;stroke:#946b3d;stroke-width:0.43969px;stroke-linecap:butt;stroke-linejoin:miter;stroke-opacity:1" />
        <text
           xml:space="preserve"
           style="font-style:normal;font-weight:normal;font-size:36.9245px;line-height:0;font-family:sans-serif;fill:#000000;fill-opacity:1;stroke:none;stroke-width:1.123;stroke-miterlimit:4;stroke-dasharray:none"
           x="-1.9452647"
           y="46.353951"
           id="text835-8"
           transform="scale(0.99656434,1.0034475)"><tspan
             sodipodi:role="line"
             id="tspan833-4"
             x="-1.9452647"
             y="46.353951"
             style="font-style:normal;font-variant:normal;font-weight:bold;font-stretch:normal;font-size:49.2326px;line-height:1.65;font-family:'Segoe UI';-inkscape-font-specification:'Segoe UI Bold';stroke-width:1.123;stroke-miterlimit:4;stroke-dasharray:none">SPROUT</tspan></text>
        <path
           style="fill:#80b435;fill-opacity:1;stroke:#80b435;stroke-width:0.453594px;stroke-linecap:butt;stroke-linejoin:miter;stroke-opacity:1"
           d="m 105.50595,32.062941 c 0,0 0.33778,-1.95697 -0.31387,-2.873871 -0.68086,-0.958109 -3.17264,-2.21018 -3.17264,-2.21018 0,0 -0.13407,2.60286 0.50323,3.50004 0.67004,0.9432 2.98328,1.58401 2.98328,1.584011 z"
           id="path904"
           sodipodi:nodetypes="cscsc" />
        <path
           sodipodi:nodetypes="cscsc"
           id="path904-8"
           d="m 108.40381,24.763351 c 0,0 3.14724,0.313099 4.57992,-0.668991 1.49708,-1.02599 3.37056,-4.599039 3.37056,-4.599039 0,0 -4.16961,0.0229 -5.57149,0.983329 -1.47378,1.00968 -2.37899,4.284701 -2.37899,4.284701 z"
           style="fill:#80b435;fill-opacity:1;stroke:#80b435;stroke-width:0.677767px;stroke-linecap:butt;stroke-linejoin:miter;stroke-opacity:1" />
        <path
           style="fill:#80b435;fill-opacity:1;stroke:#80b435;stroke-width:1.5911px;stroke-linecap:butt;stroke-linejoin:miter;stroke-opacity:1"
           d="m 107.62508,23.40681 c 0,0 1.45815,-2.85945 1.69965,-6.07477 0.16136,-2.14772 -0.64514,-4.49924 -1.22456,-6.09735 -1.51186,-4.1697395 -8.128122,-9.9300895 -8.128122,-9.9300895 0,0 -1.64244,10.9429405 -0.22807,14.8475495 1.487042,4.10493 7.881102,7.25466 7.881102,7.25466 z"
           id="path904-8-0"
           sodipodi:nodetypes="csscscc" />
      </g>
    </g>
  </g>
</svg>
